<svg xmlns="http://www.w3.org/2000/svg" viewBox="0 0 104 113.71"><g id="Calque_2" data-name="Calque 2"><g id="Calque_1-2" data-name="Calque 1"><path d="M102,50.35c-.8-24.79-21-46.12-45.7-48.17A50,50,0,0,0,2,52.67C2.36,80.08,17.1,99,50.78,107.25c2.55.63,5.29,1.16,7.15.86a5.72,5.72,0,0,0,3.91-1.87,5.06,5.06,0,0,0,1.15-4,19.65,19.65,0,0,0-1-2.81c-.22-.53-1-1.55-1.92-1.44a19.66,19.66,0,0,1-7.41,1.47c-6.92,0-16.17-1.69-21.84-4L40.21,74A27.26,27.26,0,0,0,51.5,76.5a24.9,24.9,0,0,0,10.6-2.36l2.74,9.27c.39,1.82.63,1.57,1.87,8l.94,4.26c.07.26,1,3,1.74,5.7a16.15,16.15,0,0,0,1.45,3.78,10.8,10.8,0,0,0,1.79,2.14,17.12,17.12,0,0,0,5.87,3.61,11.19,11.19,0,0,0,8.21.13c5.42-1.61,7.1-6,5.49-8-1.19-1.49-2.47-1.71-4.68-1.19s-4.42,3-7.3,1.92l-2.36-1.24a31.38,31.38,0,0,1-3.37-2.24,10.15,10.15,0,0,1-1.82-2.19c-.31-.31.13-.37-.06-.74l.12-.41C90.49,88.82,102.65,71.27,102,50.35ZM51.5,74a21.12,21.12,0,0,1-10.58-2.53l7.77-23.63c3.1-9.91,4.65-6.7,7.6,3.25l5.15,20.67A22.65,22.65,0,0,1,51.5,74Zm-13-4.17c-6.38-4.55-10.41-9.52-10.09-18.2.68-18.39,10-23.83,20.33-25C62.27,25.16,74,38.23,74,51.5a22.47,22.47,0,0,1-9.9,18.64L54.56,44.07s-.64-2.17-1-2.25-1-1.29-1.38-1.26l-1-1.34c-.67.05-1.38,3-1.57,3.67l-1.56,5c-.7,1.27-1.31,3.32-1.83,4.27ZM72.29,96.9,64.88,72.62c7.4-4.7,10-14.92,9.88-23C74.62,37.2,66,28.22,53.1,26.55c-14.44-1.87-26.6,10.61-26.6,25A25,25,0,0,0,37.68,72.33l-6.9,23.19C15.44,87.76,4.2,66.56,4,48.34,3.56,21.21,26.5,3.55,53.76,4.53,77.26,5.38,93.31,20,99.5,45.75,104.23,65.43,89.29,89,72.29,96.9Z" style="fill:#68bd9e;stroke:#68bd9e;stroke-miterlimit:10;stroke-width:4px"/><path d="M59.64,57.07v.77a4.68,4.68,0,0,0,.8,2.67c1.23,1.79,2.8.6,2.06-2L55.05,38.77c-2.23-.12-1.39-3.06-2.28-1.77-.23.33-.7-2.11-1.11-2.08h0c-.66,0-1.14,2.29-1.71,1l-8.9,22.3C40,61,46.11,57.49,46.24,57.07c.44-1.53,2,6.73,2.1.57,0-2.82.56-5.11,3.66-2.14.61.58,1.2,3.6,1.63,2.61,1.25-2.87,1.07-4,2.5,2,.4,1.66,1.21,2.25,1.53.83S58.05,54.23,59.64,57.07Z" style="fill:#eeeded;stroke:#68bd9e;stroke-miterlimit:10;stroke-width:0.25px"/></g></g></svg>